<svg width="54" height="34" viewBox="0 0 54 34" fill="none" xmlns="http://www.w3.org/2000/svg">
<g clip-path="url(#clip0_51_628)">
<path d="M0 0H54V34H0V0Z" fill="#003399"/>
<path d="M27 3.77771L26.382 5.57415L27.333 5.866L27 3.77771Z" fill="#FFCC00"/>
<path d="M27 3.77771L27.618 5.57415L26.6669 5.866L27 3.77771Z" fill="#FFCC00"/>
<path d="M28.8786 5.0849L26.9022 5.08295L26.9258 6.02545L28.8786 5.0849Z" fill="#FFCC00"/>
<path d="M28.9022 5.07217L27.3186 6.1932L26.6964 5.43989L28.9022 5.07217Z" fill="#FFCC00"/>
<path d="M28.1756 7.2038L27.5493 5.39844L26.6065 5.68138L28.1756 7.2038Z" fill="#FFCC00"/>
<path d="M28.1867 7.19485L26.5576 6.08019L27.1343 5.32052L28.1867 7.19485Z" fill="#FFCC00"/>
<path d="M25.1214 5.0849L27.0978 5.08295L27.0742 6.02545L25.1214 5.0849Z" fill="#FFCC00"/>
<path d="M25.0978 5.07217L26.6814 6.1932L27.3036 5.43989L25.0978 5.07217Z" fill="#FFCC00"/>
<path d="M25.8244 7.2038L26.4507 5.39844L27.3935 5.68138L25.8244 7.2038Z" fill="#FFCC00"/>
<path d="M25.8133 7.19485L27.4424 6.08019L26.8657 5.32052L25.8133 7.19485Z" fill="#FFCC00"/>
<path d="M27 26.4444L26.382 28.2408L27.333 28.5327L27 26.4444Z" fill="#FFCC00"/>
<path d="M27 26.4444L27.618 28.2408L26.6669 28.5327L27 26.4444Z" fill="#FFCC00"/>
<path d="M28.8786 27.7516L26.9022 27.7496L26.9258 28.6921L28.8786 27.7516Z" fill="#FFCC00"/>
<path d="M28.9022 27.7388L27.3186 28.8599L26.6964 28.1065L28.9022 27.7388Z" fill="#FFCC00"/>
<path d="M28.1756 29.8705L27.5493 28.0651L26.6065 28.348L28.1756 29.8705Z" fill="#FFCC00"/>
<path d="M28.1867 29.8615L26.5576 28.7468L27.1343 27.9872L28.1867 29.8615Z" fill="#FFCC00"/>
<path d="M25.1214 27.7516L27.0978 27.7496L27.0742 28.6921L25.1214 27.7516Z" fill="#FFCC00"/>
<path d="M25.0978 27.7388L26.6814 28.8599L27.3036 28.1065L25.0978 27.7388Z" fill="#FFCC00"/>
<path d="M25.8244 29.8705L26.4507 28.0651L27.3935 28.348L25.8244 29.8705Z" fill="#FFCC00"/>
<path d="M25.8133 29.8615L27.4424 28.7468L26.8657 27.9872L25.8133 29.8615Z" fill="#FFCC00"/>
<path d="M15 15.1111L14.382 16.9075L15.333 17.1993L15 15.1111Z" fill="#FFCC00"/>
<path d="M15 15.1111L15.618 16.9075L14.6669 17.1993L15 15.1111Z" fill="#FFCC00"/>
<path d="M16.8786 16.4182L14.9022 16.4163L14.9258 17.3588L16.8786 16.4182Z" fill="#FFCC00"/>
<path d="M16.9022 16.4055L15.3186 17.5265L14.6964 16.7732L16.9022 16.4055Z" fill="#FFCC00"/>
<path d="M16.1756 18.5371L15.5493 16.7318L14.6065 17.0147L16.1756 18.5371Z" fill="#FFCC00"/>
<path d="M16.1867 18.5282L14.5576 17.4135L15.1343 16.6539L16.1867 18.5282Z" fill="#FFCC00"/>
<path d="M13.1214 16.4182L15.0978 16.4163L15.0742 17.3588L13.1214 16.4182Z" fill="#FFCC00"/>
<path d="M13.0978 16.4055L14.6814 17.5265L15.3036 16.7732L13.0978 16.4055Z" fill="#FFCC00"/>
<path d="M13.8244 18.5371L14.4507 16.7318L15.3935 17.0147L13.8244 18.5371Z" fill="#FFCC00"/>
<path d="M13.8133 18.5282L15.4424 17.4135L14.8657 16.6539L13.8133 18.5282Z" fill="#FFCC00"/>
<path d="M19.8124 8.71582L21.4422 7.6011L20.8661 6.84149L19.8124 8.71582Z" fill="#FFCC00"/>
<path d="M19.8242 8.72531L20.4506 6.91939L21.3932 7.20176L19.8242 8.72531Z" fill="#FFCC00"/>
<path d="M19.0976 6.61154L20.7095 7.71416L21.3034 6.94245L19.0976 6.61154Z" fill="#FFCC00"/>
<path d="M19.1016 6.62418L21.0976 6.6039L21.0935 7.52808L19.1016 6.62418Z" fill="#FFCC00"/>
<path d="M21.0112 5.29865L20.3818 7.10255L21.3214 7.38693L21.0112 5.29865Z" fill="#FFCC00"/>
<path d="M21.0234 5.29865L21.6178 7.09505L20.6431 7.38693L21.0234 5.29865Z" fill="#FFCC00"/>
<path d="M22.1668 8.71579L20.5573 7.61121L21.1537 6.84146L22.1668 8.71579Z" fill="#FFCC00"/>
<path d="M22.1754 8.7146L21.5761 6.91939L20.6063 7.21246L22.1754 8.7146Z" fill="#FFCC00"/>
<path d="M22.9019 6.60498L21.2716 7.71414L20.6961 6.94897L22.9019 6.60498Z" fill="#FFCC00"/>
<path d="M22.9019 6.60391L20.9114 6.609L20.9019 7.54836L22.9019 6.60391Z" fill="#FFCC00"/>
<path d="M17.786 12.8708L17.1596 11.0649L16.217 11.3472L17.786 12.8708Z" fill="#FFCC00"/>
<path d="M17.7978 12.8613L16.168 11.7466L16.7441 10.987L17.7978 12.8613Z" fill="#FFCC00"/>
<path d="M15.4434 12.8613L17.0529 11.7567L16.4565 10.987L15.4434 12.8613Z" fill="#FFCC00"/>
<path d="M15.4348 12.8601L16.0341 11.0649L17.0039 11.358L15.4348 12.8601Z" fill="#FFCC00"/>
<path d="M14.7083 10.7505L16.3386 11.8597L16.9141 11.0945L14.7083 10.7505Z" fill="#FFCC00"/>
<path d="M14.7083 10.7494L16.6988 10.7545L16.7083 11.6939L14.7083 10.7494Z" fill="#FFCC00"/>
<path d="M18.5126 10.757L16.9007 11.8597L16.3068 11.088L18.5126 10.757Z" fill="#FFCC00"/>
<path d="M18.5086 10.7697L16.5126 10.7494L16.5167 11.6736L18.5086 10.7697Z" fill="#FFCC00"/>
<path d="M16.599 9.44415L17.2284 11.2481L16.2888 11.5324L16.599 9.44415Z" fill="#FFCC00"/>
<path d="M16.5868 9.44415L15.9924 11.2406L16.9671 11.5324L16.5868 9.44415Z" fill="#FFCC00"/>
<path d="M18.4758 22.0957L16.5093 22.0835L16.5428 23.0158L18.4758 22.0957Z" fill="#FFCC00"/>
<path d="M18.5093 22.065L16.9469 23.1938L16.3035 22.4482L18.5093 22.065Z" fill="#FFCC00"/>
<path d="M17.7827 24.1917L17.1097 22.399L16.2136 22.6946L17.7827 24.1917Z" fill="#FFCC00"/>
<path d="M17.8687 24.1954L16.1647 23.1275L16.6665 22.3211L17.8687 24.1954Z" fill="#FFCC00"/>
<path d="M15.4879 24.1954L17.0495 23.0474L16.4052 22.3211L15.4879 24.1954Z" fill="#FFCC00"/>
<path d="M15.4315 24.2372L15.9395 22.399L17.0006 22.6491L15.4315 24.2372Z" fill="#FFCC00"/>
<path d="M16.5072 20.7783L17.2251 22.5377L16.374 22.8666L16.5072 20.7783Z" fill="#FFCC00"/>
<path d="M16.4155 20.7783L15.9891 22.6347L17.1318 22.8666L16.4155 20.7783Z" fill="#FFCC00"/>
<path d="M14.705 22.1736L16.6204 22.0835L16.705 22.9379L14.705 22.1736Z" fill="#FFCC00"/>
<path d="M14.705 22.1493L16.427 23.1938L16.9108 22.3639L14.705 22.1493Z" fill="#FFCC00"/>
<path d="M22.8696 26.2441L20.9031 26.232L20.9366 27.1643L22.8696 26.2441Z" fill="#FFCC00"/>
<path d="M22.9031 26.2134L21.3407 27.3422L20.6973 26.5967L22.9031 26.2134Z" fill="#FFCC00"/>
<path d="M22.1765 28.3401L21.5035 26.5475L20.6074 26.8431L22.1765 28.3401Z" fill="#FFCC00"/>
<path d="M22.2625 28.3439L20.5585 27.2759L21.0603 26.4695L22.2625 28.3439Z" fill="#FFCC00"/>
<path d="M19.8817 28.3439L21.4433 27.1959L20.799 26.4695L19.8817 28.3439Z" fill="#FFCC00"/>
<path d="M19.8253 28.3857L20.3333 26.5474L21.3943 26.7975L19.8253 28.3857Z" fill="#FFCC00"/>
<path d="M20.901 24.9268L21.6189 26.6862L20.7678 27.015L20.901 24.9268Z" fill="#FFCC00"/>
<path d="M20.8093 24.9268L20.3829 26.7832L21.5255 27.015L20.8093 24.9268Z" fill="#FFCC00"/>
<path d="M19.0987 26.3221L21.0142 26.232L21.0987 27.0864L19.0987 26.3221Z" fill="#FFCC00"/>
<path d="M19.0987 26.2977L20.8208 27.3422L21.3045 26.5124L19.0987 26.2977Z" fill="#FFCC00"/>
<path d="M39 15.1111L39.618 16.9075L38.667 17.1993L39 15.1111Z" fill="#FFCC00"/>
<path d="M39 15.1111L38.382 16.9075L39.3331 17.1993L39 15.1111Z" fill="#FFCC00"/>
<path d="M37.1214 16.4182L39.0978 16.4163L39.0742 17.3588L37.1214 16.4182Z" fill="#FFCC00"/>
<path d="M37.0978 16.4055L38.6814 17.5265L39.3036 16.7732L37.0978 16.4055Z" fill="#FFCC00"/>
<path d="M37.8244 18.5371L38.4507 16.7318L39.3935 17.0147L37.8244 18.5371Z" fill="#FFCC00"/>
<path d="M37.8133 18.5282L39.4424 17.4135L38.8657 16.6539L37.8133 18.5282Z" fill="#FFCC00"/>
<path d="M40.8786 16.4182L38.9022 16.4163L38.9258 17.3588L40.8786 16.4182Z" fill="#FFCC00"/>
<path d="M40.9022 16.4055L39.3186 17.5265L38.6964 16.7732L40.9022 16.4055Z" fill="#FFCC00"/>
<path d="M40.1756 18.5371L39.5493 16.7318L38.6065 17.0147L40.1756 18.5371Z" fill="#FFCC00"/>
<path d="M40.1867 18.5282L38.5576 17.4135L39.1343 16.6539L40.1867 18.5282Z" fill="#FFCC00"/>
<path d="M34.1876 8.71582L32.5578 7.6011L33.1338 6.84149L34.1876 8.71582Z" fill="#FFCC00"/>
<path d="M34.1758 8.72531L33.5493 6.91939L32.6067 7.20176L34.1758 8.72531Z" fill="#FFCC00"/>
<path d="M34.9024 6.61154L33.2905 7.71416L32.6966 6.94245L34.9024 6.61154Z" fill="#FFCC00"/>
<path d="M34.8984 6.62418L32.9024 6.6039L32.9064 7.52808L34.8984 6.62418Z" fill="#FFCC00"/>
<path d="M32.9887 5.29865L33.6182 7.10255L32.6786 7.38693L32.9887 5.29865Z" fill="#FFCC00"/>
<path d="M32.9766 5.29865L32.3822 7.09505L33.3569 7.38693L32.9766 5.29865Z" fill="#FFCC00"/>
<path d="M31.8332 8.71579L33.4426 7.61121L32.8463 6.84146L31.8332 8.71579Z" fill="#FFCC00"/>
<path d="M31.8246 8.7146L32.4239 6.91939L33.3937 7.21246L31.8246 8.7146Z" fill="#FFCC00"/>
<path d="M31.0981 6.60498L32.7284 7.71414L33.3039 6.94897L31.0981 6.60498Z" fill="#FFCC00"/>
<path d="M31.098 6.60391L33.0886 6.609L33.098 7.54836L31.098 6.60391Z" fill="#FFCC00"/>
<path d="M36.214 12.8708L36.8404 11.0649L37.783 11.3472L36.214 12.8708Z" fill="#FFCC00"/>
<path d="M36.2022 12.8613L37.832 11.7466L37.2559 10.987L36.2022 12.8613Z" fill="#FFCC00"/>
<path d="M38.5566 12.8613L36.9471 11.7567L37.5435 10.987L38.5566 12.8613Z" fill="#FFCC00"/>
<path d="M38.5652 12.8601L37.9659 11.0649L36.9961 11.358L38.5652 12.8601Z" fill="#FFCC00"/>
<path d="M39.2917 10.7505L37.6614 11.8597L37.0859 11.0945L39.2917 10.7505Z" fill="#FFCC00"/>
<path d="M39.2917 10.7494L37.3012 10.7545L37.2917 11.6939L39.2917 10.7494Z" fill="#FFCC00"/>
<path d="M35.4874 10.757L37.0993 11.8597L37.6932 11.088L35.4874 10.757Z" fill="#FFCC00"/>
<path d="M35.4914 10.7697L37.4874 10.7494L37.4833 11.6736L35.4914 10.7697Z" fill="#FFCC00"/>
<path d="M37.401 9.44415L36.7716 11.2481L37.7112 11.5324L37.401 9.44415Z" fill="#FFCC00"/>
<path d="M37.4132 9.44415L38.0076 11.2406L37.0329 11.5324L37.4132 9.44415Z" fill="#FFCC00"/>
<path d="M35.5242 22.0957L37.4907 22.0835L37.4572 23.0158L35.5242 22.0957Z" fill="#FFCC00"/>
<path d="M35.4907 22.065L37.0531 23.1938L37.6965 22.4482L35.4907 22.065Z" fill="#FFCC00"/>
<path d="M36.2173 24.1917L36.8903 22.399L37.7864 22.6946L36.2173 24.1917Z" fill="#FFCC00"/>
<path d="M36.1313 24.1954L37.8353 23.1275L37.3335 22.3211L36.1313 24.1954Z" fill="#FFCC00"/>
<path d="M38.5121 24.1954L36.9505 23.0474L37.5948 22.3211L38.5121 24.1954Z" fill="#FFCC00"/>
<path d="M38.5685 24.2372L38.0605 22.399L36.9994 22.6491L38.5685 24.2372Z" fill="#FFCC00"/>
<path d="M37.4928 20.7783L36.7749 22.5377L37.626 22.8666L37.4928 20.7783Z" fill="#FFCC00"/>
<path d="M37.5845 20.7783L38.0109 22.6347L36.8682 22.8666L37.5845 20.7783Z" fill="#FFCC00"/>
<path d="M39.295 22.1736L37.3796 22.0835L37.295 22.9379L39.295 22.1736Z" fill="#FFCC00"/>
<path d="M39.295 22.1493L37.573 23.1938L37.0892 22.3639L39.295 22.1493Z" fill="#FFCC00"/>
<path d="M31.1304 26.2441L33.0969 26.232L33.0634 27.1643L31.1304 26.2441Z" fill="#FFCC00"/>
<path d="M31.0969 26.2134L32.6593 27.3422L33.3027 26.5967L31.0969 26.2134Z" fill="#FFCC00"/>
<path d="M31.8235 28.3401L32.4965 26.5475L33.3926 26.8431L31.8235 28.3401Z" fill="#FFCC00"/>
<path d="M31.7375 28.3439L33.4415 27.2759L32.9397 26.4695L31.7375 28.3439Z" fill="#FFCC00"/>
<path d="M34.1183 28.3439L32.5567 27.1959L33.201 26.4695L34.1183 28.3439Z" fill="#FFCC00"/>
<path d="M34.1747 28.3857L33.6667 26.5474L32.6057 26.7975L34.1747 28.3857Z" fill="#FFCC00"/>
<path d="M33.099 24.9268L32.3811 26.6862L33.2322 27.015L33.099 24.9268Z" fill="#FFCC00"/>
<path d="M33.1907 24.9268L33.6171 26.7832L32.4745 27.015L33.1907 24.9268Z" fill="#FFCC00"/>
<path d="M34.9013 26.3221L32.9858 26.232L32.9013 27.0864L34.9013 26.3221Z" fill="#FFCC00"/>
<path d="M34.9013 26.2977L33.1792 27.3422L32.6955 26.5124L34.9013 26.2977Z" fill="#FFCC00"/>
</g>
<defs>
<clipPath id="clip0_51_628">
<rect width="54" height="34" rx="3" fill="white"/>
</clipPath>
</defs>
</svg>
