<svg width="55" height="35" viewBox="0 0 55 35" fill="none" xmlns="http://www.w3.org/2000/svg">
<path fill-rule="evenodd" clip-rule="evenodd" d="M5.93945 25.2109H13.4101V26.9931H5.93945M52.0293 32.2917C52.3577 32.2854 52.6713 32.1556 52.9064 31.9287C53.1415 31.7018 53.2805 31.3949 53.2949 31.0703V14.7788H2.71386V31.0703C2.70851 31.2322 2.73785 31.3933 2.79996 31.5431C2.86207 31.693 2.95553 31.8281 3.07421 31.9397C3.30689 32.172 3.62251 32.3047 3.95312 32.3091L52.0293 32.2917ZM3.96191 33.9913C3.57188 33.9941 3.18534 33.9185 2.82575 33.7691C2.46617 33.6197 2.14104 33.3995 1.87011 33.122C1.59068 32.854 1.3688 32.533 1.21778 32.1783C1.06676 31.8235 0.989691 31.4422 0.991202 31.0573V2.92968C0.990034 2.54389 1.06614 2.16169 1.21513 1.80516C1.36412 1.44862 1.58303 1.12481 1.85924 0.85242C2.13544 0.58003 2.46346 0.364456 2.82436 0.218148C3.18525 0.0718387 3.57188 -0.0023073 3.96191 -9.20567e-06H52.0293C52.8157 -1.26098e-05 53.5699 0.308372 54.1268 0.857546C54.6837 1.40672 54.9977 2.15188 55 2.92968V31.0703C54.999 31.4549 54.9208 31.8354 54.77 32.1899C54.6191 32.5443 54.3985 32.8656 54.1211 33.135C53.5651 33.6862 52.812 33.9985 52.0249 34.0043C35.9878 34.0043 19.9653 34.0043 3.95751 34.0043L3.96191 33.9913ZM2.71386 6.32881H53.2949V2.92533C53.2945 2.76229 53.2604 2.60107 53.1946 2.45157C53.1289 2.30206 53.0329 2.16744 52.9126 2.05599C52.799 1.9382 52.6627 1.84406 52.5117 1.77912C52.3608 1.71418 52.1983 1.67974 52.0337 1.67782H3.96191C3.79728 1.67949 3.63467 1.71382 3.4837 1.77878C3.33273 1.84374 3.19647 1.938 3.083 2.05599C2.96689 2.16945 2.87512 2.30493 2.8132 2.45431C2.75128 2.60369 2.72048 2.7639 2.72265 2.92533V6.32881H2.71386ZM16.8599 25.2109H29.292V26.9931H16.8599V25.2109Z" fill="#003399"/>
<path d="M33.3015 27V18.2727H36.7958C37.4378 18.2727 37.9733 18.3679 38.4023 18.5582C38.8313 18.7486 39.1537 19.0128 39.3696 19.3509C39.5856 19.6861 39.6935 20.0724 39.6935 20.5099C39.6935 20.8509 39.6253 21.1506 39.489 21.4091C39.3526 21.6648 39.1651 21.875 38.9265 22.0398C38.6907 22.2017 38.4208 22.3168 38.1168 22.3849V22.4702C38.4492 22.4844 38.7603 22.5781 39.05 22.7514C39.3427 22.9247 39.5799 23.1676 39.7617 23.4801C39.9435 23.7898 40.0344 24.1591 40.0344 24.5881C40.0344 25.0511 39.9194 25.4645 39.6892 25.8281C39.462 26.1889 39.1253 26.4744 38.6793 26.6847C38.2333 26.8949 37.6836 27 37.0302 27H33.3015ZM35.1466 25.4915H36.6509C37.1651 25.4915 37.5401 25.3935 37.7759 25.1974C38.0117 24.9986 38.1296 24.7344 38.1296 24.4048C38.1296 24.1634 38.0714 23.9503 37.9549 23.7656C37.8384 23.581 37.6722 23.4361 37.4563 23.331C37.2432 23.2259 36.989 23.1733 36.6935 23.1733H35.1466V25.4915ZM35.1466 21.9247H36.5145C36.7674 21.9247 36.9918 21.8807 37.1878 21.7926C37.3867 21.7017 37.5429 21.5739 37.6566 21.4091C37.7731 21.2443 37.8313 21.0469 37.8313 20.8168C37.8313 20.5014 37.7191 20.2472 37.4946 20.054C37.2731 19.8608 36.9577 19.7642 36.5486 19.7642H35.1466V21.9247Z" fill="#003399"/>
<path d="M41.2351 18.2727H43.5106L45.914 24.1364H46.0163L48.4197 18.2727H50.6953V27H48.9055V21.3196H48.8331L46.5745 26.9574H45.3558L43.0973 21.2983H43.0248V27H41.2351V18.2727Z" fill="#003399"/>
</svg>
