<svg width="54" height="34" viewBox="0 0 54 34" fill="none" xmlns="http://www.w3.org/2000/svg">
<path d="M2.96359 0H51.0168C52.6502 0 53.9804 1.20448 53.9804 2.68351V31.3164C53.9804 32.7955 52.6502 34 51.0168 34H2.96359C1.33019 34.0088 0 32.8043 0 31.3253V2.68351C0 1.20448 1.33019 0 2.96359 0Z" fill="#B22234"/>
<path d="M0.0195617 2.41782H53.9804C53.9902 2.50638 54 2.59495 54 2.69237V5.29617H0V2.68351C0 2.59495 0.00978084 2.50638 0.0195617 2.41782ZM53.9902 7.67855V10.548H0V7.67855H53.9902ZM53.9902 12.9393V15.8088H0V12.9393H53.9902ZM53.9902 18.2V21.0695H0V18.2H53.9902ZM53.9902 23.4608V26.3303H0V23.4608H53.9902ZM53.9902 28.7215V31.3164C53.9902 31.405 53.9804 31.5024 53.9707 31.591H0.0195617C0.00978084 31.5113 0 31.4139 0 31.3253V28.7304H53.9902V28.7215Z" fill="white"/>
<path d="M20.3441 0V18.3152H0V2.68351C0 1.20448 1.33019 0 2.96359 0H20.3441Z" fill="#3C3B6E"/>
<path d="M1.20304 2.53296L1.87792 4.4371L0.0978088 3.25919H2.30828L0.518385 4.4371L1.20304 2.53296Z" fill="white"/>
<path d="M1.20304 6.21725L1.87792 8.12139L0.0978088 6.94348H2.30828L0.518385 8.12139L1.20304 6.21725Z" fill="white"/>
<path d="M1.20304 9.90152L1.87792 11.8057L0.0978088 10.6277H2.30828L0.518385 11.8057L1.20304 9.90152Z" fill="white"/>
<path d="M1.20304 13.5858L1.87792 15.49L0.0978088 14.312H2.30828L0.518385 15.49L1.20304 13.5858Z" fill="white"/>
<path d="M3.58958 0.690796L4.27424 2.59494L2.48434 1.41703H4.70459L2.90492 2.59494L3.58958 0.690796Z" fill="white"/>
<path d="M3.58958 4.37509L4.27424 6.27923L2.48434 5.10132H4.70459L2.90492 6.27923L3.58958 4.37509Z" fill="white"/>
<path d="M3.58958 8.05939L4.27424 9.96353L2.48434 8.78562H4.70459L2.90492 9.96353L3.58958 8.05939Z" fill="white"/>
<path d="M3.58958 11.7437L4.27424 13.6478L2.48434 12.4699H4.70459L2.90492 13.6478L3.58958 11.7437Z" fill="white"/>
<path d="M3.58958 15.4279L4.27424 17.3321L2.48434 16.1542H4.70459L2.90492 17.3321L3.58958 15.4279Z" fill="white"/>
<path d="M5.98588 2.53296L6.67054 4.4371L4.88065 3.25919H7.09112L5.30122 4.4371L5.98588 2.53296Z" fill="white"/>
<path d="M5.98588 6.21725L6.67054 8.12139L4.88065 6.94348H7.09112L5.30122 8.12139L5.98588 6.21725Z" fill="white"/>
<path d="M5.98588 9.90152L6.67054 11.8057L4.88065 10.6277H7.09112L5.30122 11.8057L5.98588 9.90152Z" fill="white"/>
<path d="M5.98588 13.5858L6.67054 15.49L4.88065 14.312H7.09112L5.30122 15.49L5.98588 13.5858Z" fill="white"/>
<path d="M8.38215 0.690796L9.05703 2.59494L7.27692 1.41703H9.48739L7.69749 2.59494L8.38215 0.690796Z" fill="white"/>
<path d="M8.38215 4.37509L9.05703 6.27923L7.27692 5.10132H9.48739L7.69749 6.27923L8.38215 4.37509Z" fill="white"/>
<path d="M8.38215 8.05939L9.05703 9.96353L7.27692 8.78562H9.48739L7.69749 9.96353L8.38215 8.05939Z" fill="white"/>
<path d="M8.38215 11.7437L9.05703 13.6478L7.27692 12.4699H9.48739L7.69749 13.6478L8.38215 11.7437Z" fill="white"/>
<path d="M8.38215 15.4279L9.05703 17.3321L7.27692 16.1542H9.48739L7.69749 17.3321L8.38215 15.4279Z" fill="white"/>
<path d="M10.7687 2.53296L11.4534 4.4371L9.66348 3.25919H11.874L10.0841 4.4371L10.7687 2.53296Z" fill="white"/>
<path d="M10.7687 6.21725L11.4534 8.12139L9.66348 6.94348H11.874L10.0841 8.12139L10.7687 6.21725Z" fill="white"/>
<path d="M10.7687 9.90152L11.4534 11.8057L9.66348 10.6277H11.874L10.0841 11.8057L10.7687 9.90152Z" fill="white"/>
<path d="M10.7687 13.5858L11.4534 15.49L9.66348 14.312H11.874L10.0841 15.49L10.7687 13.5858Z" fill="white"/>
<path d="M13.165 0.690796L13.8496 2.59494L12.0598 1.41703H14.2702L12.4803 2.59494L13.165 0.690796Z" fill="white"/>
<path d="M13.165 4.37509L13.8496 6.27923L12.0598 5.10132H14.2702L12.4803 6.27923L13.165 4.37509Z" fill="white"/>
<path d="M13.165 8.05939L13.8496 9.96353L12.0598 8.78562H14.2702L12.4803 9.96353L13.165 8.05939Z" fill="white"/>
<path d="M13.165 11.7437L13.8496 13.6478L12.0598 12.4699H14.2702L12.4803 13.6478L13.165 11.7437Z" fill="white"/>
<path d="M13.165 15.4279L13.8496 17.3321L12.0598 16.1542H14.2702L12.4803 17.3321L13.165 15.4279Z" fill="white"/>
<path d="M15.5515 2.53296L16.2362 4.4371L14.4463 3.25919H16.6568L14.8766 4.4371L15.5515 2.53296Z" fill="white"/>
<path d="M15.5515 6.21725L16.2362 8.12139L14.4463 6.94348H16.6568L14.8766 8.12139L15.5515 6.21725Z" fill="white"/>
<path d="M15.5515 9.90152L16.2362 11.8057L14.4463 10.6277H16.6568L14.8766 11.8057L15.5515 9.90152Z" fill="white"/>
<path d="M15.5515 13.5858L16.2362 15.49L14.4463 14.312H16.6568L14.8766 15.49L15.5515 13.5858Z" fill="white"/>
<path d="M17.9478 0.690796L18.6325 2.59494L16.8426 1.41703H19.0531L17.2632 2.59494L17.9478 0.690796Z" fill="white"/>
<path d="M17.9478 4.37509L18.6325 6.27923L16.8426 5.10132H19.0531L17.2632 6.27923L17.9478 4.37509Z" fill="white"/>
<path d="M17.9478 8.05939L18.6325 9.96353L16.8426 8.78562H19.0531L17.2632 9.96353L17.9478 8.05939Z" fill="white"/>
<path d="M17.9478 11.7437L18.6325 13.6478L16.8426 12.4699H19.0531L17.2632 13.6478L17.9478 11.7437Z" fill="white"/>
<path d="M17.9478 15.4279L18.6325 17.3321L16.8426 16.1542H19.0531L17.2632 17.3321L17.9478 15.4279Z" fill="white"/>
</svg>
